<svg width="64" height="64" xmlns="http://www.w3.org/2000/svg" xmlns:xlink="http://www.w3.org/1999/xlink">
  <defs/>
  <g>
    <path stroke="none" fill="#FFFFFF" d="M31.9 17.75 L32 17.8 Q29.85 17 27.65 17 L12.4 17.05 12.25 17.05 Q11.95 17.05 11.7 17.3 L11.65 17.3 11.15 17.85 11 20.15 11.15 20.85 11.4 21.25 Q11.95 21.75 13.25 21.8 L18.6 22.25 18.5 22.2 23.6 22.6 23.7 22.65 Q28.05 23.05 29.65 26.3 L29.9 27 31.1 30.7 31.1 30.75 Q31.75 32.35 32.8 33.9 L32.85 34 37.05 39.55 37.05 39.5 41.2 45.05 Q42.3 46.1 43.8 46.6 L43.85 46.6 47 46.9 47.25 46.85 Q49.95 46.6 51.65 44.2 53.4 41.7 52.9 39 L52.85 38.95 Q52.4 36.75 51.3 35.45 L43.5 27.7 35.65 19.85 Q33.9 18.55 31.9 17.75 M37.7 17.65 L45.6 25.55 53.55 33.45 Q55.2 35.3 55.8 38.35 56.65 42.3 54.1 45.9 51.55 49.5 47.5 49.85 45.2 50.25 42.85 49.45 40.55 48.7 38.9 46.95 L34.65 41.35 30.4 35.7 Q29.1 33.85 28.3 31.85 L27 27.7 Q26 25.85 23.4 25.6 L18.25 25.2 13.15 24.8 Q9.85 24.7 8.75 22.65 7.95 21.6 8 19.9 L8.2 17 Q8.85 15.65 9.85 14.9 11 14 12.35 14.05 L27.65 14 Q30.35 14 33 14.95 35.55 15.95 37.7 17.65"/>
  </g>
</svg>