<svg width="64" height="64" xmlns="http://www.w3.org/2000/svg" xmlns:xlink="http://www.w3.org/1999/xlink">
  <defs/>
  <g>
    <path stroke="none" fill="#FFFFFF" d="M48.35 22.4 Q51.45 23.2 53.65 25.75 55.75 28.3 55.95 31.35 56.25 34.85 53.9 37.95 51.55 41 47.95 41.75 L45.3 42 42.65 41.95 12.35 41.95 Q10.4 42.1 8.75 39.95 8.1 39 8 37.55 L8.1 35 Q8.2 31 12.3 30.3 18.95 29.15 28.9 28.3 32.65 27.95 34.5 26.2 36.3 24.4 39.4 23.15 41.55 22.25 43.8 22.05 L48.35 22.4 M44.1 25.05 Q42.25 25.2 40.55 25.95 38.05 26.9 36.65 28.35 L36.55 28.4 Q34.15 30.8 29.2 31.3 L29.15 31.3 12.8 33.25 Q11.2 33.55 11.1 35.1 L11.1 35.15 11 37.4 Q11.05 37.9 11.25 38.25 L12.15 38.95 12.35 38.95 42.65 38.95 42.75 38.95 45.2 39 45.3 39 47.45 38.8 47.35 38.85 Q49.85 38.3 51.5 36.15 L51.55 36.15 Q53.1 34 52.95 31.6 L52.95 31.55 Q52.8 29.45 51.35 27.65 49.75 25.85 47.6 25.3 L47.55 25.3 44.1 25.05"/>
  </g>
</svg>