<svg width="64" height="64" xmlns="http://www.w3.org/2000/svg" xmlns:xlink="http://www.w3.org/1999/xlink">
  <defs/>
  <g>
    <path stroke="none" fill="#FFFFFF" d="M34.85 31.3 Q29.85 30.8 27.45 28.4 L27.4 28.35 Q25.95 26.9 23.5 25.95 L23.45 25.95 Q21.75 25.2 19.95 25.05 L19.9 25.05 16.45 25.3 16.4 25.3 Q14.25 25.85 12.7 27.65 11.2 29.45 11.05 31.55 L11.05 31.6 Q10.9 34 12.5 36.15 14.15 38.3 16.65 38.85 L16.6 38.8 18.8 39 21.3 38.95 51.65 38.95 51.9 38.95 52.8 38.25 53 37.45 53 37.35 52.9 35.15 52.9 35.1 Q52.8 33.55 51.2 33.25 L34.85 31.3 M15.65 22.4 L20.2 22.05 Q22.45 22.25 24.6 23.15 27.7 24.4 29.5 26.2 31.35 27.95 35.1 28.3 L51.7 30.3 Q55.8 31 55.9 35 L56 37.55 Q55.9 39 55.25 39.95 53.6 42.1 51.65 41.95 L21.35 41.95 18.7 42 16.05 41.75 Q12.45 41 10.1 37.95 7.75 34.85 8.05 31.35 8.25 28.3 10.35 25.75 12.55 23.2 15.65 22.4"/>
  </g>
</svg>