<svg width="64" height="64" xmlns="http://www.w3.org/2000/svg" xmlns:xlink="http://www.w3.org/1999/xlink">
  <defs/>
  <g>
    <path stroke="none" fill="#FFFFFF" d="M26.3 17.65 Q28.45 15.95 31 14.95 33.65 14 36.35 14 L51.65 14.05 Q53 14 54.15 14.9 55.15 15.65 55.8 17 L56 19.9 Q56.05 21.6 55.25 22.65 54.15 24.7 50.85 24.8 L45.75 25.2 40.6 25.6 Q38 25.85 37 27.7 L35.7 31.85 Q34.9 33.85 33.6 35.7 L29.35 41.35 25.1 46.95 Q23.45 48.7 21.15 49.45 18.8 50.25 16.5 49.85 12.45 49.5 9.9 45.9 7.35 42.3 8.2 38.35 8.8 35.3 10.45 33.45 L18.4 25.55 26.3 17.65 M36.35 17 Q34.15 17 32 17.8 L32.1 17.75 Q30.1 18.55 28.4 19.85 L20.55 27.7 12.7 35.45 Q11.6 36.75 11.15 38.95 L11.15 39 Q10.6 41.7 12.35 44.2 14.05 46.6 16.75 46.85 L17.05 46.9 20.2 46.6 20.25 46.6 Q21.7 46.1 22.8 45.05 L27 39.5 26.95 39.55 31.15 34 31.2 33.9 32.95 30.75 32.95 30.7 34.1 27 34.35 26.3 Q35.95 23.05 40.35 22.65 L40.4 22.6 45.5 22.2 45.45 22.25 50.8 21.8 Q52.05 21.75 52.6 21.25 L52.9 20.85 53 20.15 52.85 17.85 52.35 17.3 52.3 17.3 Q52.05 17.05 51.75 17.05 L51.6 17.05 36.35 17"/>
  </g>
</svg>